<mxfile host="65bd71144e">
    <diagram id="IO2EGoG18FD6536q7bJ6" name="第 1 页">
        <mxGraphModel dx="930" dy="659" grid="1" gridSize="10" guides="1" tooltips="1" connect="1" arrows="1" fold="1" page="1" pageScale="1" pageWidth="827" pageHeight="1169" math="0" shadow="0">
            <root>
                <mxCell id="0"/>
                <mxCell id="1" parent="0"/>
                <mxCell id="2" value="&lt;font style=&quot;font-size: 20px;&quot;&gt;对象&lt;/font&gt;" style="rounded=0;whiteSpace=wrap;html=1;" parent="1" vertex="1">
                    <mxGeometry x="90" y="70" width="180" height="40" as="geometry"/>
                </mxCell>
                <mxCell id="3" value="&lt;font style=&quot;font-size: 20px;&quot;&gt;行为&lt;/font&gt;" style="rounded=0;whiteSpace=wrap;html=1;" parent="1" vertex="1">
                    <mxGeometry x="270" y="70" width="340" height="40" as="geometry"/>
                </mxCell>
                <mxCell id="4" value="" style="whiteSpace=wrap;html=1;aspect=fixed;fontSize=20;" parent="1" vertex="1">
                    <mxGeometry x="50" y="70" width="40" height="40" as="geometry"/>
                </mxCell>
                <mxCell id="5" value="" style="endArrow=none;html=1;fontSize=20;exitX=0;exitY=0;exitDx=0;exitDy=0;entryX=1;entryY=1;entryDx=0;entryDy=0;" parent="1" source="4" target="4" edge="1">
                    <mxGeometry width="50" height="50" relative="1" as="geometry">
                        <mxPoint x="400" y="390" as="sourcePoint"/>
                        <mxPoint x="450" y="340" as="targetPoint"/>
                    </mxGeometry>
                </mxCell>
                <mxCell id="6" value="01" style="whiteSpace=wrap;html=1;aspect=fixed;fontSize=20;" parent="1" vertex="1">
                    <mxGeometry x="50" y="110" width="40" height="40" as="geometry"/>
                </mxCell>
                <mxCell id="7" value="病人、医生、管理" style="rounded=0;whiteSpace=wrap;html=1;fontSize=20;" parent="1" vertex="1">
                    <mxGeometry x="90" y="110" width="180" height="40" as="geometry"/>
                </mxCell>
                <mxCell id="9" value="登录" style="rounded=0;whiteSpace=wrap;html=1;fontSize=20;" parent="1" vertex="1">
                    <mxGeometry x="270" y="110" width="340" height="40" as="geometry"/>
                </mxCell>
                <mxCell id="10" value="02" style="whiteSpace=wrap;html=1;aspect=fixed;fontSize=20;" parent="1" vertex="1">
                    <mxGeometry x="50" y="150" width="40" height="40" as="geometry"/>
                </mxCell>
                <mxCell id="11" value="病人、医生、管理" style="rounded=0;whiteSpace=wrap;html=1;fontSize=20;" parent="1" vertex="1">
                    <mxGeometry x="90" y="150" width="180" height="40" as="geometry"/>
                </mxCell>
                <mxCell id="12" value="个人信息管理（修改、查询）" style="rounded=0;whiteSpace=wrap;html=1;fontSize=20;" parent="1" vertex="1">
                    <mxGeometry x="270" y="150" width="340" height="40" as="geometry"/>
                </mxCell>
                <mxCell id="15" value="03" style="whiteSpace=wrap;html=1;aspect=fixed;fontSize=20;" parent="1" vertex="1">
                    <mxGeometry x="50" y="190" width="40" height="40" as="geometry"/>
                </mxCell>
                <mxCell id="16" value="病人" style="rounded=0;whiteSpace=wrap;html=1;fontSize=20;" parent="1" vertex="1">
                    <mxGeometry x="90" y="190" width="180" height="40" as="geometry"/>
                </mxCell>
                <mxCell id="17" value="挂号、预约" style="rounded=0;whiteSpace=wrap;html=1;fontSize=20;" parent="1" vertex="1">
                    <mxGeometry x="270" y="190" width="340" height="40" as="geometry"/>
                </mxCell>
                <mxCell id="18" value="07" style="whiteSpace=wrap;html=1;aspect=fixed;fontSize=20;" parent="1" vertex="1">
                    <mxGeometry x="50" y="350" width="40" height="40" as="geometry"/>
                </mxCell>
                <mxCell id="19" value="医生、管理" style="rounded=0;whiteSpace=wrap;html=1;fontSize=20;" parent="1" vertex="1">
                    <mxGeometry x="90" y="350" width="180" height="40" as="geometry"/>
                </mxCell>
                <mxCell id="20" value="打卡、请假（处理请假、排班）" style="rounded=0;whiteSpace=wrap;html=1;fontSize=20;" parent="1" vertex="1">
                    <mxGeometry x="270" y="350" width="340" height="40" as="geometry"/>
                </mxCell>
                <mxCell id="21" value="05" style="whiteSpace=wrap;html=1;aspect=fixed;fontSize=20;" parent="1" vertex="1">
                    <mxGeometry x="50" y="270" width="40" height="40" as="geometry"/>
                </mxCell>
                <mxCell id="22" value="病人、管理" style="rounded=0;whiteSpace=wrap;html=1;fontSize=20;" parent="1" vertex="1">
                    <mxGeometry x="90" y="270" width="180" height="40" as="geometry"/>
                </mxCell>
                <mxCell id="23" value="投诉（处理投诉）" style="rounded=0;whiteSpace=wrap;html=1;fontSize=20;" parent="1" vertex="1">
                    <mxGeometry x="270" y="270" width="340" height="40" as="geometry"/>
                </mxCell>
                <mxCell id="24" value="04" style="whiteSpace=wrap;html=1;aspect=fixed;fontSize=20;" parent="1" vertex="1">
                    <mxGeometry x="50" y="230" width="40" height="40" as="geometry"/>
                </mxCell>
                <mxCell id="25" value="病人" style="rounded=0;whiteSpace=wrap;html=1;fontSize=20;" parent="1" vertex="1">
                    <mxGeometry x="90" y="230" width="180" height="40" as="geometry"/>
                </mxCell>
                <mxCell id="26" value="缴费（挂号、检测、药品缴费）" style="rounded=0;whiteSpace=wrap;html=1;fontSize=20;" parent="1" vertex="1">
                    <mxGeometry x="270" y="230" width="340" height="40" as="geometry"/>
                </mxCell>
                <mxCell id="27" value="06" style="whiteSpace=wrap;html=1;aspect=fixed;fontSize=20;" parent="1" vertex="1">
                    <mxGeometry x="50" y="310" width="40" height="40" as="geometry"/>
                </mxCell>
                <mxCell id="28" value="医生、病人" style="rounded=0;whiteSpace=wrap;html=1;fontSize=20;" parent="1" vertex="1">
                    <mxGeometry x="90" y="310" width="180" height="40" as="geometry"/>
                </mxCell>
                <mxCell id="41" value="" style="edgeStyle=none;html=1;" edge="1" parent="1" source="29" target="40">
                    <mxGeometry relative="1" as="geometry"/>
                </mxCell>
                <mxCell id="29" value="诊断（问诊）" style="rounded=0;whiteSpace=wrap;html=1;fontSize=20;" parent="1" vertex="1">
                    <mxGeometry x="270" y="310" width="340" height="40" as="geometry"/>
                </mxCell>
                <mxCell id="30" value="08" style="whiteSpace=wrap;html=1;aspect=fixed;fontSize=20;" parent="1" vertex="1">
                    <mxGeometry x="50" y="390" width="40" height="40" as="geometry"/>
                </mxCell>
                <mxCell id="31" value="医生、病人" style="rounded=0;whiteSpace=wrap;html=1;fontSize=20;" parent="1" vertex="1">
                    <mxGeometry x="90" y="390" width="180" height="40" as="geometry"/>
                </mxCell>
                <mxCell id="32" value="查询（各种信息的查询）" style="rounded=0;whiteSpace=wrap;html=1;fontSize=20;" parent="1" vertex="1">
                    <mxGeometry x="270" y="390" width="340" height="40" as="geometry"/>
                </mxCell>
                <mxCell id="33" value="09" style="whiteSpace=wrap;html=1;aspect=fixed;fontSize=20;" parent="1" vertex="1">
                    <mxGeometry x="50" y="430" width="40" height="40" as="geometry"/>
                </mxCell>
                <mxCell id="34" value="管理" style="rounded=0;whiteSpace=wrap;html=1;fontSize=20;" parent="1" vertex="1">
                    <mxGeometry x="90" y="430" width="180" height="40" as="geometry"/>
                </mxCell>
                <mxCell id="35" value="药房管理" style="rounded=0;whiteSpace=wrap;html=1;fontSize=20;" parent="1" vertex="1">
                    <mxGeometry x="270" y="430" width="340" height="40" as="geometry"/>
                </mxCell>
                <mxCell id="36" value="10" style="whiteSpace=wrap;html=1;aspect=fixed;fontSize=20;" parent="1" vertex="1">
                    <mxGeometry x="50" y="470" width="40" height="40" as="geometry"/>
                </mxCell>
                <mxCell id="37" value="管理" style="rounded=0;whiteSpace=wrap;html=1;fontSize=20;" parent="1" vertex="1">
                    <mxGeometry x="90" y="470" width="180" height="40" as="geometry"/>
                </mxCell>
                <mxCell id="38" value="医院、医生、病人所有信息的管理" style="rounded=0;whiteSpace=wrap;html=1;fontSize=20;" parent="1" vertex="1">
                    <mxGeometry x="270" y="470" width="340" height="40" as="geometry"/>
                </mxCell>
                <mxCell id="39" value="" style="endArrow=classic;startArrow=classic;html=1;fontSize=20;exitX=1;exitY=0.5;exitDx=0;exitDy=0;entryX=1;entryY=0.5;entryDx=0;entryDy=0;" parent="1" source="26" target="17" edge="1">
                    <mxGeometry width="50" height="50" relative="1" as="geometry">
                        <mxPoint x="670" y="220" as="sourcePoint"/>
                        <mxPoint x="640" y="210" as="targetPoint"/>
                        <Array as="points">
                            <mxPoint x="630" y="250"/>
                            <mxPoint x="630" y="210"/>
                        </Array>
                    </mxGeometry>
                </mxCell>
                <mxCell id="40" value="形式：聊天室" style="whiteSpace=wrap;html=1;fontSize=20;rounded=0;" vertex="1" parent="1">
                    <mxGeometry x="660" y="300" width="130" height="60" as="geometry"/>
                </mxCell>
                <mxCell id="42" value="Text" style="text;html=1;strokeColor=none;fillColor=none;align=center;verticalAlign=middle;whiteSpace=wrap;rounded=0;" vertex="1" parent="1">
                    <mxGeometry x="350" y="240" width="60" height="30" as="geometry"/>
                </mxCell>
            </root>
        </mxGraphModel>
    </diagram>
</mxfile>